<svg width="17" height="17" viewBox="0 0 17 17" fill="none" xmlns="http://www.w3.org/2000/svg">
<g id="Icon">
<path id="Vector" d="M7.45156 1.89562C7.40007 1.92814 7.33503 1.9986 7.30522 2.05009C7.25373 2.13682 7.24831 2.19644 7.24018 2.81432L7.23205 3.48641H6.16701C5.12094 3.48641 5.10468 3.48641 4.98543 3.54603C4.896 3.5921 4.84722 3.64088 4.80115 3.73031L4.73882 3.85226L4.74695 5.2127C4.75508 6.5379 4.75779 6.57313 4.81199 6.6463C4.8418 6.68695 4.90142 6.74657 4.94207 6.77638C5.01524 6.83058 5.05318 6.83329 6.12636 6.84142L7.23476 6.84955V7.4566V8.06635H6.19411C5.62229 8.06635 5.11281 8.07448 5.06402 8.08261C4.98814 8.09617 4.83638 8.23709 4.24831 8.82245C3.25102 9.81974 3.25102 9.68153 4.2456 10.6734C4.63042 11.0555 4.98001 11.3834 5.02066 11.3997C5.06944 11.4159 5.48679 11.4268 6.16701 11.4268H7.23476V12.8767V14.3265H5.9231H4.61416L4.52202 14.3888C4.25915 14.5623 4.28354 14.9905 4.56267 15.1233C4.64668 15.1639 5.00982 15.1666 8.50847 15.1666C12.0071 15.1666 12.3703 15.1639 12.4543 15.1233C12.5871 15.0609 12.6629 14.939 12.6738 14.7764C12.6873 14.6084 12.6277 14.4756 12.4949 14.3888L12.4028 14.3265H11.0938H9.78218V12.8767V11.4268H10.8526C12.0451 11.4268 12.0478 11.4268 12.1833 11.2479L12.2619 11.1477L12.27 9.80348C12.2781 8.29671 12.2781 8.29671 12.0911 8.15308L11.9963 8.07991L10.8879 8.07177L9.78218 8.06364V7.4566V6.84684H10.8499C11.5302 6.84684 11.9475 6.836 11.9963 6.81974C12.1128 6.77638 13.4624 5.41595 13.4976 5.30755C13.5139 5.25335 13.5193 5.16392 13.5085 5.09074C13.4895 4.96879 13.4624 4.93627 12.8093 4.27503C12.3675 3.83329 12.0884 3.57042 12.018 3.5379C11.9177 3.49183 11.8255 3.48641 10.8472 3.48641H9.78489L9.77676 2.81432C9.76863 2.19644 9.76321 2.13682 9.71172 2.05009C9.68191 1.9986 9.61687 1.92814 9.56538 1.89562C9.47595 1.83329 9.46782 1.83329 8.50847 1.83329C7.54912 1.83329 7.54099 1.83329 7.45156 1.89562ZM8.91497 3.0799V3.48641H8.50847H8.10197V3.0799V2.6734H8.50847H8.91497V3.0799ZM12.0722 4.76012L12.4787 5.16663L12.0722 5.57313L11.6657 5.97963H8.63855H5.60874V5.16663V4.35362H8.63855H11.6657L12.0722 4.76012ZM8.91497 7.4566V8.06635H8.50847H8.10197V7.4566V6.84684H8.50847H8.91497V7.4566ZM11.4082 9.74657V10.5596H8.37839H5.35129L4.94478 10.1531L4.53828 9.74657L4.94478 9.34007L5.35129 8.93356H8.37839H11.4082V9.74657ZM8.91497 12.8767V14.3265H8.50847H8.10197V12.8767V11.4268H8.50847H8.91497V12.8767Z" fill="#0085FF"/>
</g>
</svg>
